<svg width="40" height="40" viewBox="0 0 40 40" fill="none" xmlns="http://www.w3.org/2000/svg">
<g id="Icon Payment / chuy&#225;&#187;&#131;n-kho&#225;&#186;&#163;n" clip-path="url(#clip0_458_5367)">
<g id="Vector">
<path d="M40 5H0V11.6667H40V5Z" fill="#318CDD"/>
<path fill-rule="evenodd" clip-rule="evenodd" d="M40 16.6667V35H10.6667C6.93298 35 5.06614 35 3.64006 34.2734C2.38565 33.6342 1.36578 32.6144 0.726623 31.3599C0 29.9339 0 28.067 0 24.3333V16.6667H40ZM29.1667 30C31.0076 30 32.5 28.5076 32.5 26.6667C32.5 24.8257 31.0076 23.3333 29.1667 23.3333C27.3257 23.3333 25.8333 24.8257 25.8333 26.6667C25.8333 28.5076 27.3257 30 29.1667 30ZM32.8327 29.7224C33.6532 28.9614 34.1667 27.874 34.1667 26.6667C34.1667 25.4593 33.6532 24.3719 32.8327 23.611C33.2412 23.4324 33.6924 23.3333 34.1667 23.3333C36.0076 23.3333 37.5 24.8257 37.5 26.6667C37.5 28.5076 36.0076 30 34.1667 30C33.6924 30 33.2412 29.9009 32.8327 29.7224ZM20 22.5H5V25H20V22.5ZM5 27.5H15V30H5V27.5Z" fill="#318CDD"/>
</g>
</g>
<defs>
<clipPath id="clip0_458_5367">
<rect width="40" height="40" fill="white"/>
</clipPath>
</defs>
</svg>
