<svg width="32" height="32" viewBox="0 0 32 32" fill="none" xmlns="http://www.w3.org/2000/svg">
<path d="M0 8.66667L2 2H26L28 8.66667H0Z" fill="#EA0029"/>
<path d="M18.6667 10.6667C18.6667 13.244 16.5773 15.3333 14 15.3333C11.4227 15.3333 9.33333 13.244 9.33333 10.6667H18.6667Z" fill="#EA0029"/>
<path d="M18.6667 10.6667H28C28 12.5076 26.5076 14 24.6667 14H22C20.1591 14 18.6667 12.5076 18.6667 10.6667Z" fill="#EA0029"/>
<path d="M9.33333 10.6667C9.33333 13.244 7.244 15.3333 4.66667 15.3333C2.08934 15.3333 0 13.244 0 10.6667H9.33333Z" fill="#EA0029"/>
<path d="M4.66683 22.6666H16.0002V26L2.00016 26V16.7096C2.80347 17.1088 3.70894 17.3333 4.66683 17.3333V22.6666Z" fill="#EA0029"/>
<path d="M31.3335 31.3333C31.3335 29.3884 30.5609 27.5232 29.1856 26.1479C27.8103 24.7726 25.9451 24 24.0002 24C26.2093 24 28.0002 22.2091 28.0002 20C28.0002 17.7909 26.2093 16 24.0002 16C21.791 16 20.0002 17.7909 20.0002 20C20.0002 22.2091 21.791 24 24.0002 24C22.0552 24 20.19 24.7726 18.8147 26.1479C17.4394 27.5232 16.6668 29.3884 16.6668 31.3333H31.3335Z" fill="#EA0029"/>
</svg>
