<svg width="32" height="32" viewBox="0 0 32 32" fill="none" xmlns="http://www.w3.org/2000/svg">
<path d="M2 1.33325L0 7.99992H28L26 1.33325H2Z" fill="#EA0029"/>
<path d="M14 14.6666C16.5773 14.6666 18.6667 12.5772 18.6667 9.99992C18.6667 12.5772 20.756 14.6666 23.3333 14.6666C25.9107 14.6666 28 12.5772 28 9.99992H18.6667H9.33333H0C0 12.5772 2.08934 14.6666 4.66667 14.6666C7.244 14.6666 9.33333 12.5772 9.33333 9.99992C9.33333 12.5772 11.4227 14.6666 14 14.6666Z" fill="#EA0029"/>
<path d="M10.6667 21.9999H4.66667V16.6666C3.70877 16.6666 2.80331 16.4421 2 16.0429V25.3332L10.6667 25.3332V21.9999Z" fill="#EA0029"/>
<path fill-rule="evenodd" clip-rule="evenodd" d="M13.3333 17.3333V27.3333C13.3333 29.5424 15.1242 31.3333 17.3333 31.3333H31.3333V17.3333H13.3333ZM24.6667 19.9999H16V21.9999H19.3333V28.6666H21.3333V21.9999H24.6667V19.9999ZM24.6667 23.3333H22.6667V25.3333H24.6667V23.3333ZM16 23.3333H18V28.6666C16.8954 28.6666 16 27.7712 16 26.6666V23.3333ZM22.6667 26.6666H24.6667V28.6666H22.6667V26.6666Z" fill="#EA0029"/>
</svg>
