<svg width="40" height="40" viewBox="0 0 40 40" fill="none" xmlns="http://www.w3.org/2000/svg">
<path d="M11.428 37.1429H13.928L18.2137 17.8571H31.428V12.8571H4.28516V30C4.28516 33.9449 7.48312 37.1429 11.428 37.1429Z" fill="#EA0029"/>
<path fill-rule="evenodd" clip-rule="evenodd" d="M16.428 37.1429H37.1425L33.571 20H19.9995L16.428 37.1429ZM28.928 24.6429V22.1429H31.0709V24.6429C31.0709 27.0098 29.1521 28.9286 26.7852 28.9286C24.4182 28.9286 22.4994 27.0098 22.4994 24.6429V22.1429H24.6423V24.6429C24.6423 25.8263 25.6017 26.7857 26.7852 26.7857C27.9686 26.7857 28.928 25.8263 28.928 24.6429Z" fill="#EA0029"/>
<path fill-rule="evenodd" clip-rule="evenodd" d="M21.7852 12.8571V10C21.7852 7.83031 20.0263 6.07143 17.8566 6.07143C15.6869 6.07143 13.928 7.83031 13.928 10L13.928 12.8571H10.3566V10C10.3566 5.85786 13.7144 2.5 17.8566 2.5C21.9987 2.5 25.3566 5.85787 25.3566 10V12.8571H21.7852Z" fill="#EA0029"/>
</svg>
