<svg width="41" height="40" viewBox="0 0 41 40" fill="none" xmlns="http://www.w3.org/2000/svg">
<path d="M32.701 37.5H35.2012V32.5H38.1178V10H35.2012V30H16.8678L15.2012 32.5H29.3678L32.701 37.5Z" fill="#EA0029"/>
<path fill-rule="evenodd" clip-rule="evenodd" d="M11.8678 32.5H9.36764V27.5C5.68585 27.5 2.70117 24.5153 2.70117 20.8335V5H32.701V27.5H15.201L11.8678 32.5ZM19.3678 22.5C19.3678 23.4205 18.6216 24.1667 17.7012 24.1667C16.7807 24.1667 16.0345 23.4205 16.0345 22.5C16.0345 21.5795 16.7807 20.8333 17.7012 20.8333C18.6216 20.8333 19.3678 21.5795 19.3678 22.5ZM18.2845 15.5C17.1304 16.3656 16.4512 17.724 16.4512 19.1667H18.9512C18.9512 18.5109 19.2599 17.8934 19.7845 17.5L20.5792 16.904C21.6527 16.0988 22.2845 14.8353 22.2845 13.4934C22.2845 11.3433 20.6835 9.52973 18.55 9.26305L18.2697 9.228C15.5341 8.88605 13.1178 11.0191 13.1178 13.7759V14.1667H15.6178V13.7759C15.6178 12.5228 16.7161 11.5533 17.9596 11.7087L18.24 11.7437C19.1223 11.854 19.7845 12.6041 19.7845 13.4934C19.7845 14.0484 19.5232 14.571 19.0792 14.904L18.2845 15.5Z" fill="#EA0029"/>
</svg>
