<svg width="41" height="40" viewBox="0 0 41 40" fill="none" xmlns="http://www.w3.org/2000/svg">
<g clip-path="url(#clip0_1249_15833)">
<path fill-rule="evenodd" clip-rule="evenodd" d="M20.4004 3.33333C18.2117 3.33333 16.0444 3.76443 14.0223 4.60201C12.0002 5.43958 10.1629 6.66724 8.61528 8.21488C7.06764 9.76252 5.83998 11.5998 5.0024 13.6219C4.16482 15.644 3.73372 17.8113 3.73372 20C3.73372 22.1887 4.16482 24.356 5.0024 26.3781C5.83997 28.4001 7.06763 30.2375 8.61527 31.7851C10.1629 33.3328 12.0002 34.5604 14.0223 35.398C16.0444 36.2356 18.2117 36.6667 20.4004 36.6667C22.5891 36.6667 24.7564 36.2356 26.7784 35.398C28.8005 34.5604 30.6379 33.3328 32.1855 31.7851C33.7331 30.2375 34.9608 28.4002 35.7984 26.3781C36.636 24.356 37.0671 22.1887 37.0671 20C37.0671 17.8113 36.636 15.644 35.7984 13.622C34.9608 11.5999 33.7332 9.76254 32.1855 8.21489C30.6379 6.66725 28.8005 5.43959 26.7785 4.60201C24.7564 3.76443 22.5891 3.33333 20.4004 3.33333ZM12.7467 1.52241C15.1732 0.517313 17.774 0 20.4004 0C23.0268 0 25.6276 0.517318 28.0541 1.52241C30.4806 2.52751 32.6854 4.0007 34.5425 5.85787C36.3997 7.71505 37.8729 9.91983 38.878 12.3463C39.8831 14.7729 40.4004 17.3736 40.4004 20C40.4004 22.6264 39.8831 25.2272 38.878 27.6537C37.8729 30.0802 36.3997 32.285 34.5425 34.1421C32.6854 35.9993 30.4806 37.4725 28.0541 38.4776C25.6275 39.4827 23.0268 40 20.4004 40C17.7739 40 15.1732 39.4827 12.7467 38.4776C10.3202 37.4725 8.11542 35.9993 6.25825 34.1421C4.40108 32.285 2.92789 30.0802 1.9228 27.6537C0.917704 25.2271 0.400391 22.6264 0.400391 20C0.400391 17.3736 0.917708 14.7728 1.9228 12.3463C2.9279 9.91981 4.40109 7.71503 6.25826 5.85786C8.11543 4.00069 10.3202 2.5275 12.7467 1.52241Z" fill="#EA0029"/>
<path d="M27.0671 15.8333C27.0671 19.5152 24.0823 22.5 20.4004 22.5C16.7185 22.5 13.7337 19.5152 13.7337 15.8333C13.7337 12.1514 16.7185 9.16667 20.4004 9.16667C24.0823 9.16667 27.0671 12.1514 27.0671 15.8333Z" fill="#EA0029"/>
<path d="M7.43119 35.2255C8.83143 29.3607 14.1067 25 20.4004 25C26.6941 25 31.9693 29.3607 33.3696 35.2255C29.8777 38.2028 25.3489 40 20.4004 40C15.4519 40 10.9231 38.2028 7.43119 35.2255Z" fill="#EA0029"/>
</g>
<defs>
<clipPath id="clip0_1249_15833">
<rect width="40" height="40" fill="white" transform="translate(0.400391)"/>
</clipPath>
</defs>
</svg>
