<svg width="41" height="40" viewBox="0 0 41 40" fill="none" xmlns="http://www.w3.org/2000/svg">
<path d="M18.9349 34.9995L10.6019 35C7.84033 35.0002 5.60156 32.7616 5.60156 30V18.3337H18.9349V34.9995Z" fill="#EA0029"/>
<path d="M35.6016 29.9998C35.6016 32.7611 33.3631 34.9997 30.6019 34.9998L22.2682 35.0003V18.3337H35.6016V29.9998Z" fill="#EA0029"/>
<path d="M38.1016 15.8331L22.2682 15.8337V10.8337H38.1016V15.8331Z" fill="#EA0029"/>
<path d="M18.9349 15.8331L3.10156 15.8337V10.8337H18.9346L18.9349 15.8331Z" fill="#EA0029"/>
<path fill-rule="evenodd" clip-rule="evenodd" d="M16.4349 6.66699C15.5144 6.66699 14.7682 7.41319 14.7682 8.33366V10.8337H9.76823V8.33366C9.76823 4.65176 12.753 1.66699 16.4349 1.66699C20.1168 1.66699 23.1016 4.65176 23.1016 8.33366V10.8337H18.1016V8.33366C18.1016 7.41319 17.3554 6.66699 16.4349 6.66699Z" fill="#EA0029"/>
<path fill-rule="evenodd" clip-rule="evenodd" d="M24.7682 6.66699C23.8478 6.66699 23.1016 7.41319 23.1016 8.33366V10.8337H18.1016V8.33366C18.1016 4.65176 21.0864 1.66699 24.7682 1.66699C28.4501 1.66699 31.4349 4.65176 31.4349 8.33366V10.8337H26.4349V8.33366C26.4349 7.41319 25.6887 6.66699 24.7682 6.66699Z" fill="#EA0029"/>
</svg>
