<svg width="22" height="19" viewBox="0 0 22 19" fill="none" xmlns="http://www.w3.org/2000/svg">
<path d="M0.875 0.375H21.125V3.75H18.875V2.625H3.125V3.75H0.875V0.375Z" fill="white"/>
<path d="M3.125 12.375C3.125 13.2034 3.79657 13.875 4.625 13.875H18.875V12.375H21.125V16.125H14.7286L12.9287 18.75H11V16.125H4.625C2.55393 16.125 0.875 14.4461 0.875 12.375H3.125Z" fill="white"/>
<path d="M3.5 5.25V9.75C3.5 10.5784 4.17157 11.25 5 11.25H7.25V9.75H5V5.25H3.5Z" fill="white"/>
<path d="M17 5.25C15.9645 5.25 15.125 6.08947 15.125 7.125C15.125 7.5471 15.2645 7.93663 15.4999 8.25C15.2645 8.56337 15.125 8.9529 15.125 9.375C15.125 10.4105 15.9645 11.25 17 11.25H18.875V9.75H17C16.7929 9.75 16.625 9.58211 16.625 9.375C16.625 9.16789 16.7929 9 17 9H18.5V7.5H17C16.7929 7.5 16.625 7.33211 16.625 7.125C16.625 6.91789 16.7929 6.75 17 6.75H18.875V5.25H17Z" fill="white"/>
<path d="M8 5.25V11.25H9.5V5.25H8Z" fill="white"/>
<path d="M9.94879 5.25L11.3037 10.3309C11.4482 10.8729 11.9391 11.25 12.5 11.25C13.0609 11.25 13.5518 10.8729 13.6963 10.3309L15.0512 5.25H13.4988L12.5 8.99547L11.5012 5.25H9.94879Z" fill="white"/>
</svg>
