<svg width="117" height="48" viewBox="0 0 117 48" fill="none" xmlns="http://www.w3.org/2000/svg">
<path d="M115.762 3.35941C114.818 1.91839 113.398 0.849592 111.747 0.336684C110.096 -0.176223 108.317 -0.101227 106.716 0.548808C105.115 1.19884 103.791 2.38334 102.972 3.8987C102.154 5.41407 101.891 7.1657 102.23 8.8526C102.569 10.5395 103.488 12.0563 104.829 13.1424C106.171 14.2285 107.85 14.8161 109.58 14.8041C111.309 14.7922 112.981 14.1814 114.307 13.0769C115.633 11.9724 116.53 10.443 116.846 8.75157C117.045 7.82684 117.052 6.87133 116.865 5.94394C116.679 5.01655 116.304 4.13696 115.762 3.35941V3.35941Z" fill="white"/>
<path d="M12.1689 12.4004H0V47.2514H12.1689V12.4004Z" fill="white"/>
<path d="M39.8955 4.22949H27.8238L25.2491 12.3854H16.918V21.9666H22.2178C21.2463 25.0718 20.5241 27.6052 20.0513 29.5669C19.623 31.1541 19.3801 32.7851 19.3274 34.4276C19.3274 38.8534 20.6229 42.2195 23.2137 44.5258C25.8046 46.8321 29.5791 47.9837 34.5373 47.9805C37.3301 47.9345 40.0878 47.3538 42.6596 46.2701L41.5569 36.8241C40.0574 37.3807 38.4741 37.6812 36.8739 37.7131C35.1785 37.7131 33.8912 37.2783 33.0217 36.4134C32.1521 35.5485 31.7149 34.3165 31.7149 32.7172C31.7149 31.0261 32.2881 28.3106 33.4346 24.5709L34.2604 21.9666H43.7575V12.3854H37.2917L39.8955 4.22949Z" fill="white"/>
<path d="M95.7013 36.543C95.1861 36.0979 94.7767 35.5445 94.5028 34.9228C94.2289 34.3011 94.0974 33.6267 94.1177 32.9482C94.1205 32.3531 94.166 31.7589 94.2537 31.1701L97.9214 12.8097L100.064 1.95288C95.6961 2.24573 91.3927 3.15516 87.2827 4.65381L84.6643 17.5496H84.7032H84.6643L82.4152 28.8123C81.971 30.8772 81.7399 32.9819 81.7254 35.0935C81.6993 37.416 82.3452 39.6969 83.5859 41.6646C84.8467 43.6478 86.6337 45.2463 88.7498 46.2837C91.0562 47.4274 93.6054 48.0025 96.1823 47.9603C96.9939 47.9657 97.8052 47.9205 98.6112 47.825L100.676 37.8958H99.8499C98.3448 37.9835 96.8622 37.5 95.7013 36.543V36.543Z" fill="white"/>
<path d="M78.054 19.7482C76.6236 17.1017 74.474 14.9084 71.8505 13.4187C71.7923 13.38 71.734 13.3414 71.6708 13.3075C68.7451 11.7861 65.4904 10.9975 62.189 11.0102C58.8876 11.0228 55.6391 11.8363 52.7253 13.38C49.9911 14.9078 47.7477 17.1743 46.2546 19.9173C44.6755 22.8662 43.8811 26.1678 43.9472 29.5082C43.882 32.8553 44.7011 36.1608 46.3226 39.0943C47.8657 41.8389 50.1444 44.1037 52.905 45.6364C54.0613 46.2812 55.2866 46.795 56.5581 47.1681C58.5021 47.7315 60.5181 48.0114 62.5429 47.9991C64.1214 48 65.6956 47.8381 67.2405 47.516C68.4507 47.2629 69.6334 46.894 70.7721 46.4143C73.0975 45.4586 75.1451 43.9387 76.7278 41.9933C76.8104 41.8919 76.8735 41.7759 76.9513 41.6696L68.965 36.9249L67.7263 36.1953C67.3489 36.7356 66.8766 37.2038 66.3321 37.5772C65.2141 38.3251 63.8898 38.7084 62.5429 38.6739C61.7649 38.6981 60.9898 38.5683 60.2627 38.2921C59.5355 38.0159 58.8707 37.5988 58.3069 37.065C58.1757 36.9394 58.0543 36.8089 57.9329 36.6736C57.0281 35.6258 56.5135 34.3001 56.4755 32.9194H79.9534C80.1713 31.6762 80.2867 30.4174 80.2983 29.1555C80.3337 26.5079 79.8382 23.8798 78.841 21.4248C78.6101 20.8519 78.3473 20.2921 78.054 19.7482V19.7482ZM66.4195 21.6809C66.9539 22.1444 67.3789 22.7195 67.6644 23.365C67.9499 24.0106 68.0888 24.7107 68.0712 25.4158H56.5047C56.5233 24.7051 56.6851 24.0054 56.9805 23.3581C57.2759 22.7107 57.6989 22.1289 58.2243 21.6471C59.2957 20.6782 60.7021 20.1589 62.1495 20.1975C63.2239 20.1757 64.2882 20.4093 65.2536 20.8788V20.8788C65.6737 21.09 66.0655 21.353 66.4195 21.6616V21.6809Z" fill="white"/>
<path d="M87.2496 4.65408L84.6652 17.5837C88.7283 15.1493 93.2326 13.5323 97.9222 12.8245L100.099 1.93384C95.708 2.23304 91.3821 3.14887 87.2496 4.65408V4.65408ZM78.0586 19.7724C78.3611 20.3253 78.632 20.8947 78.8698 21.478C75.3714 24.7268 72.5461 28.6251 70.5532 32.9533H59.0645C59.9523 30.3491 61.0708 27.8283 62.4066 25.4207H68.0757C68.0933 24.7157 67.9544 24.0155 67.669 23.3699C67.3835 22.7244 66.9584 22.1493 66.4241 21.6858C66.0703 21.3755 65.6786 21.1109 65.2582 20.8982C67.187 18.1816 69.3982 15.6746 71.8551 13.4188C74.4786 14.9085 76.6282 17.1018 78.0586 19.7483V19.7724Z" fill="url(#paint0_linear_1071_10238)"/>
<defs>
<linearGradient id="paint0_linear_1071_10238" x1="98.2509" y1="3.75002" x2="70.5009" y2="39.75" gradientUnits="userSpaceOnUse">
<stop offset="0.49353" stop-color="#FFDBA5"/>
<stop offset="1" stop-color="#FFE975" stop-opacity="0"/>
</linearGradient>
</defs>
</svg>
