<svg width="16" height="16" viewBox="0 0 16 16" fill="none" xmlns="http://www.w3.org/2000/svg">
<path d="M8 8.5C9.10457 8.5 10 7.60457 10 6.5C10 5.39543 9.10457 4.5 8 4.5C6.89543 4.5 6 5.39543 6 6.5C6 7.60457 6.89543 8.5 8 8.5Z" fill="#181818"/>
<path fill-rule="evenodd" clip-rule="evenodd" d="M7.53114 15.0854C7.53132 15.0855 7.53148 15.0857 8 14.5L7.53114 15.0854L8 15.4605L8.46852 15.0857L8 14.5C8.46852 15.0857 8.46834 15.0858 8.46852 15.0857L8.46931 15.085L8.47055 15.084L8.4744 15.0809L8.48743 15.0704C8.49844 15.0614 8.51407 15.0486 8.53401 15.0322C8.57388 14.9992 8.63101 14.9514 8.70294 14.8898C8.84673 14.7665 9.05001 14.5876 9.29299 14.3608C9.77798 13.9081 10.4261 13.2603 11.0762 12.4801C12.3468 10.9554 13.75 8.779 13.75 6.5C13.75 3.32436 11.1756 0.75 8 0.75C4.82436 0.75 2.25 3.32436 2.25 6.5C2.25 8.779 3.6532 10.9554 4.92383 12.4801C5.57394 13.2603 6.22202 13.9081 6.70701 14.3608C6.94999 14.5876 7.15327 14.7665 7.29706 14.8898C7.36899 14.9514 7.42612 14.9992 7.46599 15.0322C7.48593 15.0486 7.50156 15.0614 7.51257 15.0704L7.5256 15.0809L7.52945 15.084L7.53069 15.085L7.53114 15.0854ZM3.75 6.5C3.75 4.15279 5.65279 2.25 8 2.25C10.3472 2.25 12.25 4.15279 12.25 6.5C12.25 8.221 11.1532 10.0446 9.92383 11.5199C9.32394 12.2397 8.72202 12.8419 8.26951 13.2642C8.17199 13.3552 8.08163 13.4377 8 13.511C7.91837 13.4377 7.82801 13.3552 7.73049 13.2642C7.27798 12.8419 6.67606 12.2397 6.07617 11.5199C4.8468 10.0446 3.75 8.221 3.75 6.5Z" fill="#181818"/>
</svg>
