<svg width="16" height="16" viewBox="0 0 16 16" fill="none" xmlns="http://www.w3.org/2000/svg">
<path d="M9.7961 2.95672C9.06814 2.65519 8.28793 2.5 7.5 2.5V1C8.48491 1 9.46018 1.19399 10.3701 1.5709C11.2801 1.94781 12.1069 2.50026 12.8033 3.1967C13.4997 3.89314 14.0522 4.71993 14.4291 5.62987C14.806 6.53982 15 7.51509 15 8.5H13.5C13.5 7.71207 13.3448 6.93185 13.0433 6.2039C12.7417 5.47595 12.2998 4.81451 11.7426 4.25736C11.1855 3.70021 10.5241 3.25825 9.7961 2.95672Z" fill="#181818"/>
<path d="M8.64805 5.72836C8.28407 5.5776 7.89396 5.5 7.5 5.5V4C8.09095 4 8.67611 4.1164 9.22207 4.34254C9.76804 4.56869 10.2641 4.90016 10.682 5.31802C11.0998 5.73588 11.4313 6.23196 11.6575 6.77792C11.8836 7.32389 12 7.90905 12 8.5H10.5C10.5 8.10603 10.4224 7.71593 10.2716 7.35195C10.1209 6.98797 9.89989 6.65726 9.62132 6.37868C9.34274 6.1001 9.01202 5.87913 8.64805 5.72836Z" fill="#181818"/>
<path d="M8.07402 7.11418C7.89203 7.0388 7.69698 7 7.5 7V8.5H9C9 8.30302 8.9612 8.10796 8.88582 7.92597C8.81043 7.74399 8.69995 7.57863 8.56066 7.43934C8.42137 7.30005 8.25601 7.18956 8.07402 7.11418Z" fill="#181818"/>
<path d="M4.71018 6.71739L3.45454 7.54348C3.45454 7.54348 3.64467 9.27098 5.1245 10.8755C6.72901 12.3553 8.45652 12.5455 8.45652 12.5455L9.28261 11.2898H13V15C10.6274 15 6.74049 15 3.87633 12.4872L3.86367 12.5C3.80298 12.4387 3.74358 12.3769 3.68544 12.3146C3.62309 12.2564 3.56127 12.197 3.5 12.1363L3.51279 12.1237C1 9.25951 1 5.37261 1 3.00001L4.71018 3V6.71739Z" fill="#181818"/>
</svg>
