<svg width="80" height="80" viewBox="0 0 80 80" fill="none" xmlns="http://www.w3.org/2000/svg">
<path fill-rule="evenodd" clip-rule="evenodd" d="M78.5709 18.5716C78.5709 28.0393 70.8958 35.7144 61.428 35.7144C51.9603 35.7144 44.2852 28.0393 44.2852 18.5716C44.2852 9.10383 51.9603 1.42871 61.428 1.42871C70.8958 1.42871 78.5709 9.10383 78.5709 18.5716ZM71.7025 12.7292L59.4155 28.8193L51.4599 21.9825L54.2532 18.7321L58.7652 22.6095L68.2964 10.1282L71.7025 12.7292Z" fill="#37BC06"/>
<path fill-rule="evenodd" clip-rule="evenodd" d="M44.2847 5.71436H5.71484V62.8572C5.71484 69.169 10.8316 74.2858 17.1434 74.2858H51.4291V37.5285C48.6204 36.0438 46.1815 33.9532 44.2863 31.4307V61.4286H21.4291C16.6953 61.4286 12.8577 57.5911 12.8577 52.8572V12.8572H40.7709C41.4928 10.2416 42.6981 7.82663 44.2847 5.71436ZM31.4291 67.1429C31.4291 68.7209 30.1499 70.0001 28.572 70.0001C26.994 70.0001 25.7148 68.7209 25.7148 67.1429C25.7148 65.565 26.994 64.2858 28.572 64.2858C30.1499 64.2858 31.4291 65.565 31.4291 67.1429Z" fill="#FFC629"/>
<path d="M21.4291 17.8572C21.4291 16.6737 22.3885 15.7144 23.572 15.7144H33.572C34.7555 15.7144 35.7148 16.6737 35.7148 17.8572C35.7148 19.0407 34.7555 20.0001 33.572 20.0001H23.572C22.3885 20.0001 21.4291 19.0407 21.4291 17.8572Z" fill="#FFC629"/>
</svg>
