<svg width="56" height="56" viewBox="0 0 56 56" fill="none" xmlns="http://www.w3.org/2000/svg">
<path fill-rule="evenodd" clip-rule="evenodd" d="M24.6706 41H8.08185C2.77407 41 -1.06215 35.9257 0.384884 30.819L7.70093 5H37.7009L35.6628 12.1927L25.5 18H10.1667L9.00001 22H22V26H7.83334L6.66667 30H22V34.1968C22 36.7567 22.9785 39.1767 24.6706 41ZM30 10H12.5L11.3333 14H28.8333L30 10Z" fill="#21145F"/>
<path fill-rule="evenodd" clip-rule="evenodd" d="M41.7346 39.9858C44.4079 38.1145 46 35.0566 46 31.7934V23L36 17L26 23V31.7934C26 35.0566 27.5921 38.1145 30.2654 39.9858L36 44L41.7346 39.9858ZM36.1289 35.9878L43.1289 27.9878L40.8711 26.0122L34.7872 32.9654L31.9 30.8L30.1 33.2L34.1 36.2L35.2128 37.0346L36.1289 35.9878Z" fill="#21145F"/>
</svg>
