<svg viewBox="0 0 11 13"
	xmlns="http://www.w3.org/2000/svg">
	<path d="M7.03805 12.2608C4.98312 12.2608 2.92819 12.2608 0.873262 12.2608C0.864942 12.2552 0.85385 12.2441 0.84553 12.2413C0.407367 12.1185 0.182739 11.8283 0.182739 11.3735C0.182739 8.5861 0.182739 5.79589 0.182739 3.00847C0.182739 2.46159 0.53216 2.1156 1.0757 2.1156C2.32364 2.1156 3.5688 2.1156 4.81673 2.1156C4.85833 2.1156 4.89993 2.1156 4.94707 2.1156C4.94707 2.58715 4.94707 3.04195 4.94707 3.49396C4.94707 4.33103 5.54608 4.93092 6.37803 4.93371C6.78846 4.93371 7.20167 4.93371 7.6121 4.93371C7.6537 4.93371 7.69529 4.93371 7.73689 4.93371C7.73967 4.96719 7.74244 4.98115 7.74244 4.99789C7.74244 7.14635 7.74244 9.2976 7.73967 11.4461C7.73967 11.8004 7.50394 12.1073 7.16839 12.2189C7.12679 12.2329 7.08242 12.2469 7.03805 12.2608ZM4.10125 8.59168C4.67252 8.59168 5.2438 8.59168 5.81785 8.59168C6.08685 8.59168 6.35862 8.59447 6.62762 8.58889C6.78292 8.5861 6.89662 8.46612 6.89662 8.31824C6.89939 8.16756 6.78846 8.05317 6.63317 8.03922C6.59434 8.03643 6.55552 8.03643 6.51669 8.03643C4.90547 8.03643 3.29702 8.03643 1.6858 8.03643C1.63866 8.03643 1.59152 8.03643 1.54437 8.04201C1.4279 8.05596 1.35025 8.12292 1.31697 8.23453C1.25873 8.42147 1.39462 8.58889 1.60816 8.58889C2.44011 8.59447 3.26929 8.59168 4.10125 8.59168ZM4.10957 10.5644C4.66698 10.5644 5.22161 10.5644 5.77902 10.5644C6.05357 10.5644 6.32811 10.5671 6.60266 10.5644C6.75241 10.5616 6.84947 10.4918 6.8883 10.3635C6.94376 10.1737 6.80233 10.0119 6.5777 10.0119C5.36027 10.0119 4.14007 10.0119 2.92265 10.0119C2.47616 10.0119 2.02968 10.0091 1.5832 10.0119C1.42235 10.0119 1.30311 10.1375 1.30311 10.2881C1.30311 10.436 1.41681 10.5504 1.5721 10.5616C1.61093 10.5644 1.64975 10.5644 1.68858 10.5644C2.49557 10.5644 3.30257 10.5644 4.10957 10.5644ZM2.99197 6.06375C2.53717 6.06375 2.08237 6.06375 1.62757 6.06375C1.43067 6.06375 1.30311 6.17815 1.30311 6.34277C1.30311 6.51018 1.43345 6.619 1.63034 6.62179C1.64143 6.62179 1.65253 6.62179 1.66639 6.62179C2.54272 6.62179 3.42182 6.62179 4.29814 6.62179C4.35361 6.62179 4.40907 6.619 4.46176 6.60505C4.62815 6.55761 4.7058 6.37067 4.62538 6.21721C4.56437 6.09723 4.45622 6.06375 4.33142 6.06375C3.88494 6.06375 3.43846 6.06375 2.99197 6.06375Z" fill="#EA0029"/>
	<path d="M3.69358 1.5604C3.69358 1.3037 3.6714 1.06374 3.69913 0.832152C3.7435 0.452684 4.08737 0.148551 4.47007 0.145761C5.68473 0.14018 6.90216 0.142971 8.11681 0.142971C8.1279 0.142971 8.139 0.145761 8.16673 0.151341C8.16673 0.190404 8.16673 0.232257 8.16673 0.27411C8.16673 0.67311 8.18059 1.07211 8.16395 1.46832C8.12513 2.32212 8.80456 2.99735 9.64206 2.96108C10.0386 2.94434 10.4352 2.95829 10.829 2.95829C10.8706 2.95829 10.9122 2.95829 10.9676 2.95829C10.9676 3.01131 10.9676 3.05595 10.9676 3.0978C10.9676 5.09838 10.9676 7.09617 10.9676 9.09675C10.9676 9.65758 10.621 10.0064 10.0664 10.0092C9.52004 10.0092 8.9765 10.0092 8.43018 10.0092C8.39136 10.0092 8.35253 10.0064 8.29984 10.0036C8.29984 9.94777 8.29984 9.89754 8.29984 9.84732C8.29984 8.15645 8.29707 6.46279 8.30261 4.77193C8.30261 4.60731 8.25547 4.48175 8.13622 4.36456C7.24603 3.48006 6.36139 2.58998 5.47951 1.69991C5.37968 1.59946 5.2743 1.55761 5.13564 1.55761C4.69748 1.56319 4.25654 1.5604 3.81838 1.5604C3.77678 1.5604 3.73518 1.5604 3.69358 1.5604ZM9.4313 6.06379C9.29541 6.06379 9.15676 6.061 9.02087 6.06379C8.84616 6.06938 8.73246 6.17819 8.72968 6.33724C8.72691 6.50186 8.84338 6.61905 9.02364 6.62184C9.28987 6.62463 9.55609 6.62463 9.82232 6.62184C9.9998 6.61905 10.1218 6.50186 10.1218 6.34282C10.1218 6.18377 9.9998 6.06938 9.81955 6.06379C9.68921 6.061 9.55887 6.06379 9.4313 6.06379ZM9.42021 8.59172C9.55609 8.59172 9.69475 8.59451 9.83064 8.59172C9.9998 8.58893 10.119 8.47175 10.119 8.3127C10.119 8.15924 10.0053 8.04205 9.83896 8.03926C9.56164 8.03368 9.28432 8.03368 9.007 8.03926C8.83507 8.04205 8.72414 8.15924 8.72691 8.32107C8.72968 8.47733 8.84338 8.58614 9.00978 8.58893C9.14844 8.59451 9.28432 8.59172 9.42021 8.59172Z" fill="#EA0029"/>
	<path d="M10.5322 2.40583C10.3797 2.40583 10.2161 2.40583 10.0525 2.40583C9.875 2.40583 9.70029 2.41141 9.52281 2.40304C9.0791 2.38071 8.74909 2.071 8.72413 1.62736C8.70472 1.27579 8.72136 0.921434 8.72136 0.567078C9.32869 1.18371 9.93047 1.79198 10.5322 2.40583Z" fill="#EA0029"/>
	<path d="M5.50181 2.54254C6.11468 3.15918 6.71647 3.76465 7.31825 4.37013C6.96051 4.37013 6.59445 4.37013 6.22839 4.37013C6.21175 4.37013 6.19788 4.36455 6.18124 4.36176C5.79577 4.28921 5.51568 3.97671 5.50458 3.5805C5.49626 3.2373 5.50181 2.89132 5.50181 2.54254Z" fill="#EA0029"/>
</svg>
