<svg width="23" height="22" viewBox="0 0 23 22" fill="none" xmlns="http://www.w3.org/2000/svg">
<g clip-path="url(#clip0_137_8955)">
<path d="M15.9808 9.30769C15.9808 7.67708 15.4012 6.28225 14.2422 5.1232C13.0831 3.96414 11.6883 3.38462 10.0577 3.38462C8.42708 3.38462 7.03225 3.96414 5.8732 5.1232C4.71414 6.28225 4.13462 7.67708 4.13462 9.30769C4.13462 10.9383 4.71414 12.3331 5.8732 13.4922C7.03225 14.6512 8.42708 15.2308 10.0577 15.2308C11.6883 15.2308 13.0831 14.6512 14.2422 13.4922C15.4012 12.3331 15.9808 10.9383 15.9808 9.30769ZM22.75 20.3077C22.75 20.766 22.5825 21.1627 22.2476 21.4976C21.9127 21.8325 21.516 22 21.0577 22C20.5817 22 20.1851 21.8325 19.8678 21.4976L15.3329 16.976C13.7552 18.0689 11.9968 18.6154 10.0577 18.6154C8.79728 18.6154 7.59195 18.3708 6.44171 17.8816C5.29147 17.3924 4.29988 16.7314 3.46695 15.8984C2.63401 15.0655 1.97296 14.0739 1.48377 12.9237C0.994591 11.7734 0.75 10.5681 0.75 9.30769C0.75 8.04728 0.994591 6.84195 1.48377 5.69171C1.97296 4.54147 2.63401 3.54988 3.46695 2.71695C4.29988 1.88401 5.29147 1.22296 6.44171 0.733774C7.59195 0.244591 8.79728 0 10.0577 0C11.3181 0 12.5234 0.244591 13.6737 0.733774C14.8239 1.22296 15.8155 1.88401 16.6484 2.71695C17.4814 3.54988 18.1424 4.54147 18.6316 5.69171C19.1208 6.84195 19.3654 8.04728 19.3654 9.30769C19.3654 11.2468 18.8189 13.0052 17.726 14.5829L22.2608 19.1178C22.5869 19.4439 22.75 19.8405 22.75 20.3077Z" fill="white"/>
</g>
<defs>
<clipPath id="clip0_137_8955">
<rect width="22" height="22" fill="white" transform="translate(0.75)"/>
</clipPath>
</defs>
</svg>
