<svg width="24" height="24" viewBox="0 0 24 24" fill="none" xmlns="http://www.w3.org/2000/svg">
<path d="M8.5 12.5C8.5 10.567 10.067 9 12 9C13.933 9 15.5 10.567 15.5 12.5C15.5 14.433 13.933 16 12 16C10.067 16 8.5 14.433 8.5 12.5Z" fill="#181818"/>
<path fill-rule="evenodd" clip-rule="evenodd" d="M20 21C22.2091 21 24 19.2091 24 17V5H18V4C18 2.89543 17.1046 2 16 2H8C6.89543 2 6 2.89543 6 4V5H0V17C0 19.2091 1.79086 21 4 21H20ZM12 7C8.96243 7 6.5 9.46243 6.5 12.5C6.5 15.5376 8.96243 18 12 18C15.0376 18 17.5 15.5376 17.5 12.5C17.5 9.46243 15.0376 7 12 7Z" fill="#181818"/>
</svg>
