<svg width="24" height="24" viewBox="0 0 24 24" fill="none" xmlns="http://www.w3.org/2000/svg">
<path fill-rule="evenodd" clip-rule="evenodd" d="M13.829 4.07953C16.1323 1.77623 19.8667 1.77622 22.17 4.07953C24.4733 6.38283 24.4733 10.1172 22.17 12.4205L11.9995 22.591L1.82904 12.4205C-0.474262 10.1172 -0.474264 6.38283 1.82904 4.07953C4.13234 1.77622 7.86673 1.77623 10.17 4.07953L11.9995 5.90903L13.829 4.07953ZM20.579 5.67052C19.1544 4.24589 16.8447 4.2459 15.42 5.67052L11.9995 9.09101L8.57904 5.67052C7.15442 4.2459 4.84465 4.2459 3.42003 5.67052C1.99541 7.09514 1.99541 9.40491 3.42003 10.8295L11.9995 19.409L20.579 10.8295C22.0037 9.40491 22.0037 7.09514 20.579 5.67052Z" fill="currentColor"/>
</svg>
