<svg width="80" height="80" viewBox="0 0 80 80" fill="none" xmlns="http://www.w3.org/2000/svg">
<path fill-rule="evenodd" clip-rule="evenodd" d="M78.5714 18.5706C78.5714 28.0383 70.8962 35.7135 61.4285 35.7135C51.9608 35.7135 44.2856 28.0383 44.2856 18.5706C44.2856 9.10285 51.9608 1.42773 61.4285 1.42773C70.8962 1.42773 78.5714 9.10285 78.5714 18.5706ZM71.703 12.7283L59.416 28.8183L51.4604 21.9815L54.2537 18.7311L58.7656 22.6086L68.2969 10.1272L71.703 12.7283Z" fill="#37BC06"/>
<path fill-rule="evenodd" clip-rule="evenodd" d="M44.2842 5.71484H5.71436V62.8577C5.71436 69.1695 10.8311 74.2863 17.1429 74.2863H51.4286V37.529C48.6199 36.0443 46.181 33.9537 44.2858 31.4312V61.4291H21.4286C16.6948 61.4291 12.8572 57.5916 12.8572 52.8577V12.8577H40.7704C41.4923 10.2421 42.6976 7.82711 44.2842 5.71484ZM31.4286 67.1434C31.4286 68.7214 30.1495 70.0006 28.5715 70.0006C26.9935 70.0006 25.7144 68.7214 25.7144 67.1434C25.7144 65.5655 26.9935 64.2863 28.5715 64.2863C30.1495 64.2863 31.4286 65.5655 31.4286 67.1434Z" fill="#FFC629"/>
<path d="M21.4286 17.8577C21.4286 16.6742 22.388 15.7148 23.5715 15.7148H33.5715C34.755 15.7148 35.7144 16.6742 35.7144 17.8577C35.7144 19.0412 34.755 20.0006 33.5715 20.0006H23.5715C22.388 20.0006 21.4286 19.0412 21.4286 17.8577Z" fill="#FFC629"/>
</svg>
