<svg width="24" height="18" viewBox="0 0 24 18" fill="none" xmlns="http://www.w3.org/2000/svg">
<path fill-rule="evenodd" clip-rule="evenodd" d="M1.23618 14.6212C0.992867 14.0832 0.857422 13.486 0.857422 12.8571V0.857147H23.1431V17.1429H5.14314C4.63069 17.1429 4.13925 17.0529 3.68374 16.888C2.59429 16.4934 1.71038 15.6698 1.23618 14.6212ZM2.60232 13.2551C2.7936 14.4863 3.85833 15.4286 5.14314 15.4286L9.21456 11.3571L6.85742 9L2.60232 13.2551ZM7.28599 15.4286H21.4288V9.81341L17.1431 5.57143L7.28599 15.4286ZM12.4289 5.14286C12.4289 6.32633 11.4695 7.28572 10.286 7.28572C9.10253 7.28572 8.14314 6.32633 8.14314 5.14286C8.14314 3.95939 9.10253 3 10.286 3C11.4695 3 12.4289 3.95939 12.4289 5.14286Z" fill="#181818"/>
</svg>
