<svg width="69" height="69" viewBox="0 0 69 69" fill="none" xmlns="http://www.w3.org/2000/svg">
<rect x="0.5" y="0.5" width="68" height="68" rx="34" fill="white" fill-opacity="0.2"/>
<rect x="8.5" y="8.5" width="52" height="52" rx="26" fill="white"/>
<path d="M29.8333 35.1641C29.8333 32.5867 31.9227 30.4974 34.5 30.4974C37.0773 30.4974 39.1667 32.5867 39.1667 35.1641C39.1667 37.7414 37.0773 39.8307 34.5 39.8307C31.9227 39.8307 29.8333 37.7414 29.8333 35.1641Z" fill="#181818"/>
<path fill-rule="evenodd" clip-rule="evenodd" d="M45.1667 46.4974C48.1122 46.4974 50.5 44.1096 50.5 41.1641V25.1641H42.5V23.8307C42.5 22.358 41.3061 21.1641 39.8333 21.1641H29.1667C27.6939 21.1641 26.5 22.358 26.5 23.8307V25.1641H18.5V41.1641C18.5 44.1096 20.8878 46.4974 23.8333 46.4974H45.1667ZM34.5 27.8307C30.4499 27.8307 27.1667 31.114 27.1667 35.1641C27.1667 39.2141 30.4499 42.4974 34.5 42.4974C38.5501 42.4974 41.8333 39.2141 41.8333 35.1641C41.8333 31.114 38.5501 27.8307 34.5 27.8307Z" fill="#181818"/>
</svg>
