<svg width="17" height="17" viewBox="0 0 17 17" fill="none" xmlns="http://www.w3.org/2000/svg">
<g clip-path="url(#clip0_6240_8443)">
<path d="M6.79028 16.0537H9.35278C12.8059 16.0537 15.6028 12.5412 15.6028 8.20996C15.6028 3.87871 12.8059 0.366211 9.35278 0.366211H6.79028" fill="#FFB234"/>
<path d="M12.409 15.0537C11.5059 15.6912 10.4622 16.0537 9.35278 16.0537H6.79028V15.0537H12.409Z" fill="#EF8039"/>
<path d="M15.6028 8.20996C15.6028 3.87871 12.8059 0.366211 9.35278 0.366211H6.79028V8.20996H15.6028Z" fill="#FFDCA4"/>
<path d="M15.1278 11.21C14.859 12.0287 14.4809 12.7787 14.0184 13.4287H6.79028V11.21H15.1278Z" fill="#FFC96F"/>
<path d="M15.6028 8.20996H6.79028V5.20996H15.1278C15.434 6.13496 15.6028 7.14746 15.6028 8.20996Z" fill="#FFC96F"/>
<path d="M14.0184 2.99121H6.79028V1.36621H12.409C13.0153 1.79434 13.559 2.34434 14.0184 2.99121Z" fill="#EBEBDF"/>
<path d="M6.79028 16.0537C10.2421 16.0537 13.0403 12.5419 13.0403 8.20996C13.0403 3.87798 10.2421 0.366211 6.79028 0.366211C3.3385 0.366211 0.540283 3.87798 0.540283 8.20996C0.540283 12.5419 3.3385 16.0537 6.79028 16.0537Z" fill="#FFDCA4"/>
<path d="M6.79028 14.46C9.55171 14.46 11.7903 11.6617 11.7903 8.20996C11.7903 4.75818 9.55171 1.95996 6.79028 1.95996C4.02886 1.95996 1.79028 4.75818 1.79028 8.20996C1.79028 11.6617 4.02886 14.46 6.79028 14.46Z" fill="#FFC96F"/>
<path d="M3.07153 8.20996C3.07153 5.02871 4.97153 2.40371 7.43091 2.00996C7.22153 1.97559 7.00591 1.95996 6.79028 1.95996C4.02778 1.95996 1.79028 4.75684 1.79028 8.20996C1.79028 11.6631 4.02778 14.46 6.79028 14.46C7.00591 14.46 7.22153 14.4412 7.43091 14.41C4.97153 14.0162 3.07153 11.3912 3.07153 8.20996Z" fill="#FFB234"/>
<path d="M6.79028 3.52246L4.44653 8.20996L6.79028 12.8975L9.13403 8.20996L6.79028 3.52246Z" fill="#FFDCA4"/>
<path d="M5.85278 9.14746L6.79028 3.52246L4.44653 8.20996L5.85278 9.14746Z" fill="#EBEBDF"/>
<path d="M9.13403 8.20996L6.79028 12.8975L4.44653 8.20996L5.85278 9.14746L9.13403 8.20996Z" fill="#FFB234"/>
</g>
<defs>
<clipPath id="clip0_6240_8443">
<rect width="16" height="16" fill="white" transform="translate(0.0715332 0.209961)"/>
</clipPath>
</defs>
</svg>
