<svg viewBox="0 0 188 46" fill="none"  xmlns="http://www.w3.org/2000/svg">
<path d="M126.615 33.26L126.551 21.3398L120.768 31.043H117.94L112.189 21.6611V33.26H106.309V10.769H111.546L119.45 23.7495L127.162 10.769H132.399L132.463 33.26H126.615ZM144.097 15.5564C146.989 15.5564 149.195 16.2204 150.716 17.5484C152.237 18.8551 152.997 20.8685 152.997 23.5889V33.26H147.31V31.0109C146.432 32.7031 144.718 33.5492 142.17 33.5492C140.82 33.5492 139.653 33.3136 138.667 32.8423C137.682 32.3711 136.932 31.7392 136.418 30.9466C135.926 30.1327 135.679 29.2116 135.679 28.1835C135.679 26.5341 136.311 25.2596 137.575 24.36C138.839 23.4389 140.788 22.9784 143.423 22.9784H146.893C146.786 21.1363 145.554 20.2152 143.198 20.2152C142.362 20.2152 141.516 20.3545 140.659 20.6329C139.803 20.89 139.074 21.2541 138.475 21.7253L136.418 17.5806C137.382 16.938 138.55 16.4453 139.92 16.1026C141.313 15.7384 142.705 15.5564 144.097 15.5564ZM143.872 29.6936C144.579 29.6936 145.2 29.5222 145.736 29.1795C146.271 28.8368 146.657 28.3334 146.893 27.6694V26.1593H144.258C142.48 26.1593 141.591 26.7483 141.591 27.9264C141.591 28.4619 141.795 28.8903 142.202 29.2116C142.609 29.5329 143.166 29.6936 143.872 29.6936ZM156.851 9.41955H162.955V33.26H156.851V9.41955ZM166.923 9.41955H173.027V33.26H166.923V9.41955Z" fill="black"/>
<path d="M102.12 16.97H96.02V34.38H102.12V16.97Z" fill="black"/>
<path d="M19.5501 15.8899H13.0901V34.5599H19.5501V15.8899Z" fill="#EA0029"/>
<path d="M30.91 21.0001C30.2242 22.8502 29.7708 24.7783 29.5599 26.7401C29.5599 29.7401 32.3699 29.8001 34.6199 28.8201L35.3499 33.8201C31.7199 35.4801 27.3499 35.1401 25.0499 33.0301C24.3383 32.3358 23.7863 31.495 23.4323 30.5659C23.0783 29.6369 22.9308 28.6419 23 27.6501C23.08 25.4801 23.78 23.5901 24.53 21.0001H21.7V15.8901H26.12L27.4699 11.5901H33.88L32.52 15.8901H36.06V21.0001H30.91Z" fill="#EA0029"/>
<path d="M75.5401 12.3101C75.542 11.5975 75.3318 10.9005 74.9363 10.3078C74.5408 9.71505 73.9778 9.25344 73.3191 8.98172C72.6604 8.70999 71.9357 8.64044 71.2373 8.78193C70.5389 8.92342 69.8984 9.26955 69.3974 9.77624C68.8963 10.2829 68.5574 10.9273 68.4238 11.6272C68.2902 12.3271 68.3679 13.051 68.647 13.7066C68.9261 14.3623 69.394 14.92 69.9911 15.3088C70.5883 15.6977 71.2876 15.9 72.0001 15.8901C72.4711 15.8914 72.9377 15.7998 73.3732 15.6205C73.8087 15.4411 74.2045 15.1777 74.538 14.8451C74.8715 14.5125 75.1361 14.1174 75.3166 13.6824C75.4972 13.2474 75.5901 12.7811 75.5901 12.3101" fill="#EA0029"/>
<path d="M55.27 27.0001C55.6365 25.0148 55.4354 22.9663 54.69 21.0901C54.576 20.7867 54.4389 20.4925 54.28 20.2101C53.5482 18.8489 52.4502 17.7197 51.11 16.9501C49.6173 16.1153 47.93 15.6909 46.22 15.7201C44.5091 15.6892 42.8198 16.1063 41.32 16.9301C36.8 19.3701 35.63 25.8701 38.05 30.1701C38.8809 31.6308 40.0905 32.8402 41.5512 33.6709C43.012 34.5016 44.6698 34.9228 46.35 34.8901C49.12 34.8901 52.21 33.7601 53.72 31.5001L49 28.6701C48.7032 29.0942 48.3057 29.4378 47.8431 29.67C47.3804 29.9022 46.8673 30.0156 46.35 30.0001C45.9477 30.0135 45.5468 29.9458 45.1712 29.8011C44.7956 29.6564 44.453 29.4375 44.1637 29.1576C43.8744 28.8777 43.6445 28.5424 43.4875 28.1717C43.3305 27.8011 43.2497 27.4026 43.25 27.0001H55.27ZM43.27 23.1201C43.36 20.8001 45.86 19.8501 47.75 20.8001C47.9643 20.9053 48.1629 21.0399 48.34 21.2001C48.6145 21.4376 48.8332 21.7329 48.9801 22.0649C49.1271 22.3968 49.1987 22.7572 49.19 23.1201H43.27Z" fill="#EA0029"/>
<mask id="mask0_416_223" style="mask-type:luminance" maskUnits="userSpaceOnUse" x="45" y="16" width="10" height="11">
<path d="M47.72 20.7801C47.9344 20.8852 48.133 21.0199 48.31 21.1801C48.5846 21.4176 48.8032 21.7129 48.9502 22.0448C49.0971 22.3768 49.1688 22.7371 49.16 23.1001H46.53C45.9805 24.3546 45.5584 25.6612 45.27 27.0001H51.12C51.8216 24.7605 53.0217 22.7092 54.63 21.0001C54.5277 20.7436 54.4108 20.4932 54.28 20.2501C53.5483 18.8889 52.4502 17.7596 51.11 16.9901C51.01 16.9275 50.9065 16.8707 50.8 16.8201C49.6144 18.0231 48.5801 19.3663 47.72 20.8201" fill="white"/>
</mask>
<g mask="url(#mask0_416_223)">
<path d="M49.9443 12.0882L40.1509 21.8816L49.9443 31.675L59.7377 21.8816L49.9443 12.0882Z" fill="url(#paint0_linear_416_223)"/>
</g>
<path d="M64.2999 28.7601C63.9247 28.3956 63.655 27.9365 63.5194 27.4312C63.3839 26.926 63.3875 26.3934 63.5299 25.8901C64.2599 22.2501 66.6299 10.1501 66.6299 10.1501C64.3717 10.1103 62.1211 10.4241 59.9599 11.0801L58.4399 18.6401L57.2499 24.6401C56.7799 27.0101 56.5399 29.4701 57.8699 31.5101C59.4699 34.1201 62.8099 35.2001 65.8699 34.8001L66.9699 29.3901C66.5124 29.5028 66.0344 29.5034 65.5766 29.392C65.1188 29.2806 64.6945 29.0604 64.3399 28.7501" fill="#EA0029"/>
<mask id="mask1_416_223" style="mask-type:luminance" maskUnits="userSpaceOnUse" x="58" y="10" width="9" height="8">
<path d="M60.0001 11.08L58.6001 17.85C60.7192 16.6786 63.081 16.0145 65.5001 15.91C66.1001 12.83 66.6101 10.27 66.6301 10.15H66.2601C64.1222 10.1435 61.9953 10.457 59.9501 11.08" fill="white"/>
</mask>
<g mask="url(#mask1_416_223)">
<path d="M62.6186 6.13747L54.7485 14.0076L62.6186 21.8777L70.4887 14.0076L62.6186 6.13747Z" fill="url(#paint1_linear_416_223)"/>
</g>
<defs>
<linearGradient id="paint0_linear_416_223" x1="51.0946" y1="26.5298" x2="82.609" y2="-4.9845" gradientUnits="userSpaceOnUse">
<stop stop-color="#E60029"/>
<stop offset="0.03" stop-color="#E81434"/>
<stop offset="0.09" stop-color="#EF4851"/>
<stop offset="0.17" stop-color="#F99B7E"/>
<stop offset="0.21" stop-color="#FFCC99"/>
<stop offset="1" stop-color="#FFCC99"/>
</linearGradient>
<linearGradient id="paint1_linear_416_223" x1="54.3435" y1="29.2958" x2="85.7051" y2="-2.06582" gradientUnits="userSpaceOnUse">
<stop stop-color="#E60029"/>
<stop offset="0.06" stop-color="#E81434"/>
<stop offset="0.19" stop-color="#EF4851"/>
<stop offset="0.38" stop-color="#F99B7E"/>
<stop offset="0.48" stop-color="#FFCC99"/>
<stop offset="1" stop-color="#FFCC99"/>
</linearGradient>
</defs>
</svg>
