<svg width="18" height="19" viewBox="0 0 18 19" fill="none" xmlns="http://www.w3.org/2000/svg">
    <path fill-rule="evenodd" clip-rule="evenodd"
        d="M6.29354 19.0001C4.63754 19.0001 3.06354 18.3341 1.86154 17.1251C-0.526457 14.7221 -0.624457 10.9121 1.64254 8.63112L9.02854 1.20112C9.79754 0.427122 10.8355 0.00012207 11.9505 0.00012207C13.1435 0.00012207 14.2775 0.479122 15.1425 1.34912C16.8635 3.08012 16.9295 5.83112 15.2885 7.48112L7.89354 14.9101C7.41454 15.3931 6.76954 15.6581 6.07754 15.6581C5.34654 15.6581 4.65354 15.3661 4.12754 14.8371C3.07454 13.7761 3.04154 12.0851 4.05454 11.0651L10.8795 4.21012C11.2695 3.81812 11.9015 3.81612 12.2935 4.20612C12.6845 4.59612 12.6865 5.22912 12.2965 5.62012L5.47254 12.4761C5.23254 12.7181 5.26554 13.1451 5.54654 13.4271C5.69254 13.5741 5.88654 13.6581 6.07754 13.6581C6.18754 13.6581 6.34554 13.6311 6.47554 13.5001L13.8705 6.07112C14.7375 5.19812 14.6725 3.71312 13.7245 2.75912C12.8175 1.84712 11.2785 1.77512 10.4465 2.61112L3.06054 10.0411C1.56654 11.5441 1.66454 14.0901 3.28054 15.7151C4.10354 16.5441 5.17354 17.0001 6.29354 17.0001C7.29454 17.0001 8.22254 16.6221 8.90454 15.9361L16.2915 8.50612C16.6805 8.11512 17.3135 8.11212 17.7055 8.50212C18.0965 8.89212 18.0985 9.52412 17.7095 9.91612L10.3225 17.3461C9.26254 18.4121 7.83154 19.0001 6.29354 19.0001Z"
        fill="currentColor" />
</svg>