<svg width="12" height="16" viewBox="0 0 12 16" fill="none" xmlns="http://www.w3.org/2000/svg">
<path d="M6 8.5C7.10457 8.5 8 7.60457 8 6.5C8 5.39543 7.10457 4.5 6 4.5C4.89543 4.5 4 5.39543 4 6.5C4 7.60457 4.89543 8.5 6 8.5Z" fill="#181818"/>
<path fill-rule="evenodd" clip-rule="evenodd" d="M5.53114 15.0854C5.53132 15.0855 5.53148 15.0857 6 14.5L5.53114 15.0854L6 15.4605L6.46852 15.0857L6 14.5C6.46852 15.0857 6.46834 15.0858 6.46852 15.0857L6.46931 15.085L6.47055 15.084L6.4744 15.0809L6.48743 15.0704C6.49844 15.0614 6.51407 15.0486 6.53401 15.0322C6.57388 14.9992 6.63101 14.9514 6.70294 14.8898C6.84673 14.7665 7.05001 14.5876 7.29299 14.3608C7.77798 13.9081 8.42606 13.2603 9.07617 12.4801C10.3468 10.9554 11.75 8.779 11.75 6.5C11.75 3.32436 9.17564 0.75 6 0.75C2.82436 0.75 0.25 3.32436 0.25 6.5C0.25 8.779 1.6532 10.9554 2.92383 12.4801C3.57394 13.2603 4.22202 13.9081 4.70701 14.3608C4.94999 14.5876 5.15327 14.7665 5.29706 14.8898C5.36899 14.9514 5.42612 14.9992 5.46599 15.0322C5.48593 15.0486 5.50156 15.0614 5.51257 15.0704L5.5256 15.0809L5.52945 15.084L5.53069 15.085L5.53114 15.0854ZM1.75 6.5C1.75 4.15279 3.65279 2.25 6 2.25C8.34721 2.25 10.25 4.15279 10.25 6.5C10.25 8.221 9.1532 10.0446 7.92383 11.5199C7.32394 12.2397 6.72202 12.8419 6.26951 13.2642C6.17199 13.3552 6.08163 13.4377 6 13.511C5.91837 13.4377 5.82801 13.3552 5.73049 13.2642C5.27798 12.8419 4.67606 12.2397 4.07617 11.5199C2.8468 10.0446 1.75 8.221 1.75 6.5Z" fill="#181818"/>
</svg>
