<svg width="14" height="14" viewBox="0 0 14 14" fill="none" xmlns="http://www.w3.org/2000/svg">
<path d="M8.7961 1.95672C8.06814 1.65519 7.28793 1.5 6.5 1.5V0C7.48491 0 8.46018 0.193993 9.37012 0.570903C10.2801 0.947814 11.1069 1.50026 11.8033 2.1967C12.4997 2.89314 13.0522 3.71993 13.4291 4.62987C13.806 5.53982 14 6.51509 14 7.5H12.5C12.5 6.71207 12.3448 5.93185 12.0433 5.2039C11.7417 4.47595 11.2998 3.81451 10.7426 3.25736C10.1855 2.70021 9.52405 2.25825 8.7961 1.95672Z" fill="#181818"/>
<path d="M7.64805 4.72836C7.28407 4.5776 6.89396 4.5 6.5 4.5V3C7.09095 3 7.67611 3.1164 8.22207 3.34254C8.76804 3.56869 9.26411 3.90016 9.68198 4.31802C10.0998 4.73588 10.4313 5.23196 10.6575 5.77792C10.8836 6.32389 11 6.90905 11 7.5H9.5C9.5 7.10603 9.4224 6.71593 9.27164 6.35195C9.12087 5.98797 8.89989 5.65726 8.62132 5.37868C8.34274 5.1001 8.01202 4.87913 7.64805 4.72836Z" fill="#181818"/>
<path d="M7.07402 6.11418C6.89203 6.0388 6.69698 6 6.5 6V7.5H8C8 7.30302 7.9612 7.10796 7.88582 6.92597C7.81043 6.74399 7.69995 6.57863 7.56066 6.43934C7.42137 6.30005 7.25601 6.18956 7.07402 6.11418Z" fill="#181818"/>
<path d="M3.71018 5.71739L2.45454 6.54348C2.45454 6.54348 2.64467 8.27098 4.1245 9.87549C5.72901 11.3553 7.45652 11.5455 7.45652 11.5455L8.28261 10.2898H12V14C9.62739 14 5.74049 14 2.87633 11.4872L2.86367 11.5C2.80298 11.4387 2.74358 11.3769 2.68544 11.3146C2.62309 11.2564 2.56127 11.197 2.5 11.1363L2.51279 11.1237C0 8.25951 0 4.37261 0 2.00001L3.71018 2V5.71739Z" fill="#181818"/>
</svg>
