<svg width="56" height="56" viewBox="0 0 56 56" fill="none" xmlns="http://www.w3.org/2000/svg">
    <path fill-rule="evenodd" clip-rule="evenodd" d="M2.88376 41.1162C2.31604 39.8609 2 38.4673 2 37V9H54V47H12C10.8043 47 9.6576 46.7901 8.59475 46.4052C6.0527 45.4847 3.99023 43.5629 2.88376 41.1162ZM6.07142 37.9286C6.51774 40.8013 9.00211 43 12 43L21.5 33.5L16 28L6.07142 37.9286ZM17 43H50V29.898L40 20L17 43ZM29 19C29 21.7614 26.7614 24 24 24C21.2386 24 19 21.7614 19 19C19 16.2386 21.2386 14 24 14C26.7614 14 29 16.2386 29 19Z" fill="#F6564F"/>
</svg>
