<svg width="31" height="31" viewBox="0 0 31 31" fill="none" xmlns="http://www.w3.org/2000/svg">
<path fill-rule="evenodd" clip-rule="evenodd" d="M4.07295 0.5L0.5 7.6459V22C0.5 25.0376 2.96243 27.5 6 27.5H11V24.5H6C4.61929 24.5 3.5 23.3807 3.5 22V10.5H27.5V7.6459L23.9271 0.5H4.07295ZM12.5 3.5H5.92705L3.92705 7.5H12.5V3.5ZM15.5 3.5V7.5H24.0729L22.0729 3.5H15.5Z" fill="currentColor"/>
<path fill-rule="evenodd" clip-rule="evenodd" d="M22 31C26.9706 31 31 26.9706 31 22C31 17.0294 26.9706 13 22 13C17.0294 13 13 17.0294 13 22C13 26.9706 17.0294 31 22 31ZM21 16.5095C19.322 16.6372 18.0002 18.0393 18.0002 19.75C18.0002 21.5449 19.4553 23 21.2502 23H22.7498C23.4402 23 23.9998 23.5596 23.9998 24.25C23.9998 24.9404 23.4402 25.5 22.7498 25.5H18.9998V27.5H21V28.75H23V27.4905C24.678 27.3628 25.9998 25.9607 25.9998 24.25C25.9998 22.4551 24.5447 21 22.7498 21H21.2502C20.5598 21 20.0002 20.4404 20.0002 19.75C20.0002 19.0596 20.5598 18.5 21.2502 18.5H25.0002V16.5H23V15.25H21V16.5095Z" fill="currentColor"/>
</svg>
