<svg width="32" height="32" viewBox="0 0 32 32" fill="none" xmlns="http://www.w3.org/2000/svg">
<path fill-rule="evenodd" clip-rule="evenodd" d="M4.07295 0.5H23.9271L27.5 7.6459V10.5H3.5V22C3.5 23.3807 4.61929 24.5 6 24.5H11V27.5H6C2.96243 27.5 0.5 25.0376 0.5 22V7.6459L4.07295 0.5ZM3.92705 7.5H12.5V3.5H5.92705L3.92705 7.5ZM15.5 3.5V7.5H24.0729L22.0729 3.5H15.5ZM22 15.5C18.4101 15.5 15.5 18.4101 15.5 22C15.5 25.5899 18.4101 28.5 22 28.5C25.5899 28.5 28.5 25.5899 28.5 22C28.5 18.4101 25.5899 15.5 22 15.5ZM12.5 22C12.5 16.7533 16.7533 12.5 22 12.5C27.2467 12.5 31.5 16.7533 31.5 22C31.5 27.2467 27.2467 31.5 22 31.5C16.7533 31.5 12.5 27.2467 12.5 22ZM20.5 21.8787V17H23.5V23.1213L20.0607 26.5607L17.9393 24.4393L20.5 21.8787Z" fill="currentColor"/>
</svg>
