<svg width="32" height="32" viewBox="0 0 32 32" fill="none" xmlns="http://www.w3.org/2000/svg">
<g clip-path="url(#clip0_6646_3059)">
<path fill-rule="evenodd" clip-rule="evenodd" d="M4.07295 0.5L0.5 7.6459V22C0.5 25.0376 2.96243 27.5 6 27.5H11V24.5H6C4.61929 24.5 3.5 23.3807 3.5 22V10.5H27.5V7.6459L23.9271 0.5H4.07295ZM12.5 3.5H5.92705L3.92705 7.5H12.5V3.5ZM15.5 3.5V7.5H24.0729L22.0729 3.5H15.5Z" fill="currentColor"/>
<path d="M26.0607 20.0607L24.1213 22L26.0606 23.9393L23.9393 26.0607L22 24.1213L20.0607 26.0607L17.9394 23.9393L19.8787 22L17.9393 20.0607L20.0607 17.9393L22 19.8787L23.9393 17.9393L26.0607 20.0607Z" fill="currentColor"/>
<path fill-rule="evenodd" clip-rule="evenodd" d="M22 12.5C16.7533 12.5 12.5 16.7533 12.5 22C12.5 27.2467 16.7533 31.5 22 31.5C27.2467 31.5 31.5 27.2467 31.5 22C31.5 16.7533 27.2467 12.5 22 12.5ZM15.5 22C15.5 18.4101 18.4101 15.5 22 15.5C25.5899 15.5 28.5 18.4101 28.5 22C28.5 25.5899 25.5899 28.5 22 28.5C18.4101 28.5 15.5 25.5899 15.5 22Z" fill="currentColor"/>
</g>
<defs>
<clipPath id="clip0_6646_3059">
<rect width="32" height="32" fill="white"/>
</clipPath>
</defs>
</svg>
