<svg width="48" height="48" viewBox="0 0 48 48" fill="none" xmlns="http://www.w3.org/2000/svg">
<path fill-rule="evenodd" clip-rule="evenodd" d="M40 48H16C11.5817 48 8 44.4183 8 40V34H13C13 36.7614 15.2386 39 18 39H35V31H40V48ZM24 45C25.1046 45 26 44.1046 26 43C26 41.8954 25.1046 41 24 41C22.8954 41 22 41.8954 22 43C22 44.1046 22.8954 45 24 45Z" fill="#AA182C"/>
<path d="M8 0V8.5H13V5H35V17H40V0H8Z" fill="#AA182C"/>
<path d="M19 8.5C19 7.67157 19.6716 7 20.5 7H27.5C28.3284 7 29 7.67157 29 8.5C29 9.32843 28.3284 10 27.5 10H20.5C19.6716 10 19 9.32843 19 8.5Z" fill="#AA182C"/>
<path d="M26 27C27.6569 27 29 25.6569 29 24C29 22.3431 27.6569 21 26 21C24.3431 21 23 22.3431 23 24C23 25.6569 24.3431 27 26 27Z" fill="#AA182C"/>
<path d="M37 24C37 25.6569 35.6569 27 34 27C32.3431 27 31 25.6569 31 24C31 22.3431 32.3431 21 34 21C35.6569 21 37 22.3431 37 24Z" fill="#AA182C"/>
<path d="M42 27C43.6569 27 45 25.6569 45 24C45 22.3431 43.6569 21 42 21C40.3431 21 39 22.3431 39 24C39 25.6569 40.3431 27 42 27Z" fill="#AA182C"/>
<path fill-rule="evenodd" clip-rule="evenodd" d="M16.5 19H18V31H3V19H4.5V17.5C4.5 14.1863 7.18629 11.5 10.5 11.5C13.8137 11.5 16.5 14.1863 16.5 17.5V19ZM13.5 19V17.5C13.5 15.8431 12.1569 14.5 10.5 14.5C8.84315 14.5 7.5 15.8431 7.5 17.5V19H13.5Z" fill="#AA182C"/>
</svg>
