<svg width="22" height="22" viewBox="0 0 22 22" fill="none" xmlns="http://www.w3.org/2000/svg">
    <path
        d="M11 0.500122C5.20156 0.500122 0.5 5.20168 0.5 11.0001C0.5 16.7986 5.20156 21.5001 11 21.5001C16.7984 21.5001 21.5 16.7986 21.5 11.0001C21.5 5.20168 16.7984 0.500122 11 0.500122ZM5.75 8.86731C5.75601 8.57292 5.87718 8.29261 6.0875 8.08654C6.29782 7.88046 6.58055 7.76504 6.875 7.76504C7.16945 7.76504 7.45218 7.88046 7.6625 8.08654C7.87282 8.29261 7.99399 8.57292 8 8.86731C7.99399 9.1617 7.87282 9.44201 7.6625 9.64808C7.45218 9.85416 7.16945 9.96958 6.875 9.96958C6.58055 9.96958 6.29782 9.85416 6.0875 9.64808C5.87718 9.44201 5.75601 9.1617 5.75 8.86731ZM11 15.2423C8.99609 15.2423 7.35313 13.665 7.25 11.6892C7.24873 11.6638 7.25264 11.6384 7.26149 11.6145C7.27034 11.5907 7.28395 11.5689 7.30149 11.5505C7.31903 11.5321 7.34013 11.5174 7.36351 11.5074C7.3869 11.4974 7.41207 11.4923 7.4375 11.4923H8.56484C8.66328 11.4923 8.74766 11.5673 8.75469 11.6657C8.84375 12.8259 9.81641 13.7423 11 13.7423C12.1836 13.7423 13.1586 12.8259 13.2453 11.6657C13.2523 11.5673 13.3367 11.4923 13.4352 11.4923H14.5625C14.5879 11.4923 14.6131 11.4974 14.6365 11.5074C14.6599 11.5174 14.681 11.5321 14.6985 11.5505C14.716 11.5689 14.7297 11.5907 14.7385 11.6145C14.7474 11.6384 14.7513 11.6638 14.75 11.6892C14.6469 13.665 13.0039 15.2423 11 15.2423ZM15.125 9.99231C14.8306 9.9863 14.5503 9.86513 14.3442 9.65481C14.1382 9.44448 14.0227 9.16176 14.0227 8.86731C14.0227 8.57286 14.1382 8.29013 14.3442 8.07981C14.5503 7.86949 14.8306 7.74832 15.125 7.74231C15.4194 7.74832 15.6997 7.86949 15.9058 8.07981C16.1118 8.29013 16.2273 8.57286 16.2273 8.86731C16.2273 9.16176 16.1118 9.44448 15.9058 9.65481C15.6997 9.86513 15.4194 9.9863 15.125 9.99231Z"
        fill="currentColor" />
</svg>