<svg width="32" height="20" viewBox="0 0 32 20" fill="none" xmlns="http://www.w3.org/2000/svg">
<path fill-rule="evenodd" clip-rule="evenodd" d="M21.3333 0H0V16C0 18.2091 1.79086 20 4 20H21.3333V0ZM6.66667 8C7.77127 8 8.66667 7.1046 8.66667 6C8.66667 4.8954 7.77127 4 6.66667 4C5.5621 4 4.66667 4.8954 4.66667 6C4.66667 7.1046 5.5621 8 6.66667 8ZM16.6667 14C16.6667 15.1046 15.7713 16 14.6667 16C13.5621 16 12.6667 15.1046 12.6667 14C12.6667 12.8954 13.5621 12 14.6667 12C15.7713 12 16.6667 12.8954 16.6667 14ZM14.3299 3.78867L4.99657 14.4553L7.00347 16.2113L16.3368 5.54467L14.3299 3.78867Z" fill="currentColor"/>
<path fill-rule="evenodd" clip-rule="evenodd" d="M23.3333 0H32V6C29.7909 6 28 7.79087 28 10C28 12.2091 29.7909 14 32 14V20H23.3333V0Z" fill="currentColor"/>
<path d="M21.3333 2.66667H23.3333V5.33333H21.3333V2.66667Z" fill="currentColor"/>
<path d="M21.3333 8.66667H23.3333V11.3333H21.3333V8.66667Z" fill="currentColor"/>
<path d="M21.3333 14.6667H23.3333V17.3333H21.3333V14.6667Z" fill="currentColor"/>
</svg>
